<?xml version="1.0" encoding="UTF-8"?>
<svg version="1.1" xmlns="http://www.w3.org/2000/svg" width="512" height="512">
<path d="M0 0 C9.06505513 8.19201612 14.76764609 18.81004921 20.87109375 29.26171875 C21.27875977 29.94186035 21.68642578 30.62200195 22.10644531 31.32275391 C24.95433573 36.135458 26.01502401 39.47446077 25.93359375 45.01171875 C25.92457031 45.8109375 25.91554688 46.61015625 25.90625 47.43359375 C25.88884766 48.33851562 25.88884766 48.33851562 25.87109375 49.26171875 C26.93714844 49.36097656 28.00320313 49.46023437 29.1015625 49.5625 C34.93740581 50.29791637 40.52574861 51.87966674 46.18359375 53.44921875 C47.24771484 53.72830078 48.31183594 54.00738281 49.40820312 54.29492188 C59.41434001 57.06049845 68.1748167 61.24955522 75.87109375 68.26171875 C76.75474609 68.97714844 76.75474609 68.97714844 77.65625 69.70703125 C94.27631825 83.38637172 106.01885182 103.43705115 115.87109375 122.26171875 C116.40428223 123.26452881 116.40428223 123.26452881 116.94824219 124.28759766 C129.25919373 147.51657148 137.97900853 172.07740139 140.87109375 198.26171875 C141.00257813 199.42832031 141.1340625 200.59492188 141.26953125 201.796875 C141.60034587 205.61912502 141.77349123 209.42798239 141.87109375 213.26171875 C141.8983252 214.32181152 141.92555664 215.3819043 141.95361328 216.47412109 C142.68804761 250.64148423 139.21811395 287.92840103 117.87109375 316.26171875 C116.15755606 318.02702495 114.40721034 319.75738398 112.62109375 321.44921875 C106.70090859 327.10688806 104.77338451 332.4570431 102.89453125 340.2734375 C102.72356934 340.98226074 102.55260742 341.69108398 102.37646484 342.42138672 C102.0471918 343.82405805 101.73415815 345.23067218 101.43994141 346.64111328 C100.44218807 351.10081826 99.03868088 353.96421105 95.87109375 357.26171875 C91.19503937 359.59974594 85.6050498 358.83091345 80.7890625 357.25 C77.77937276 355.98933751 74.82259488 354.65260848 71.87109375 353.26171875 C70.45711072 352.65129775 69.04095206 352.04584608 67.62109375 351.44921875 C66.71359375 351.05734375 65.80609375 350.66546875 64.87109375 350.26171875 C62.26160672 356.0300585 60.28623333 361.93029844 58.34765625 367.95703125 C56.2989544 372.5422211 53.38687606 375.16277657 49.37109375 378.07421875 C39.56477708 381.40136191 29.03896999 378.75632915 19.24487305 376.49786377 C6.69717269 373.62562462 -5.84637864 371.39491737 -18.62890625 369.88671875 C-19.91893555 369.73170898 -21.20896484 369.57669922 -22.53808594 369.41699219 C-38.0784635 367.66815195 -53.62444456 367.05505952 -69.25390625 367.07421875 C-70.02850189 367.07415833 -70.80309753 367.0740979 -71.60116577 367.07403564 C-95.15641773 367.0996531 -118.73536439 368.23038408 -142.19140625 370.38671875 C-150.06656915 371.10000365 -157.90846152 371.52606596 -165.81640625 371.63671875 C-166.78006104 371.66266113 -167.74371582 371.68860352 -168.73657227 371.71533203 C-173.06658102 371.72700636 -175.45600824 371.67620346 -179.2109375 369.36328125 C-182.83420619 365.39318236 -182.25748085 361.68767848 -182.2265625 356.56445312 C-182.2243721 355.21285599 -182.2243721 355.21285599 -182.22213745 353.83395386 C-182.21832476 351.8717952 -182.21220122 349.90964002 -182.20407104 347.94749451 C-182.19132701 344.8361238 -182.18479581 341.72479568 -182.17993164 338.61340332 C-182.16654372 330.87778543 -182.14245333 323.14220744 -182.11853027 315.40661621 C-182.09873843 308.88365401 -182.08311621 302.36070733 -182.07296753 295.83772278 C-182.06651825 292.78351062 -182.05400458 289.7293623 -182.04125977 286.6751709 C-182.03762309 284.78149469 -182.03427188 282.88781791 -182.03125 280.99414062 C-182.02350052 279.73432877 -182.02350052 279.73432877 -182.01559448 278.44906616 C-182.01508614 272.66743892 -182.45897165 267.0033066 -183.12890625 261.26171875 C-187.36126098 266.68073292 -190.14974874 272.328448 -192.6484375 278.6875 C-192.98740555 279.54299942 -193.3263736 280.39849884 -193.6756134 281.27992249 C-198.58135072 293.80332466 -203.05756378 306.49083031 -207.58514404 319.15454102 C-209.52522796 324.57919765 -211.4711145 330.00177272 -213.41802406 335.42398262 C-214.0846411 337.28260105 -214.74905118 339.14201057 -215.41337585 341.00144958 C-217.50089869 346.82539698 -219.62124905 352.6357958 -221.8059082 358.42407227 C-222.19929886 359.46668716 -222.59268951 360.50930206 -222.9980011 361.58351135 C-224.52240545 365.19360281 -225.73403286 367.22479472 -229.12890625 369.26171875 C-236.56676507 370.22751451 -243.3776089 368.48316628 -250.44140625 366.32421875 C-251.48321045 366.01137939 -252.52501465 365.69854004 -253.59838867 365.3762207 C-267.9203742 360.93761127 -281.41169783 354.80854835 -294.75390625 348.01171875 C-295.55417236 347.61170654 -296.35443848 347.21169434 -297.17895508 346.79956055 C-304.59760756 342.89487888 -304.59760756 342.89487888 -306.12890625 338.26171875 C-306.57663956 331.83460583 -304.1766195 326.55997128 -301.39071655 320.9022522 C-296.31635742 310.58484591 -291.75590236 300.22082391 -287.81640625 289.4140625 C-287.58490498 288.78156837 -287.3534037 288.14907425 -287.11488724 287.49741364 C-281.73373889 272.73299545 -277.36402099 257.70056835 -273.09051514 242.58575439 C-258.85056113 192.23845683 -258.85056113 192.23845683 -248.81640625 169.19921875 C-248.36185059 168.14307373 -247.90729492 167.08692871 -247.43896484 165.9987793 C-238.7876314 146.10012203 -229.08599594 126.98351297 -218.12890625 108.26171875 C-217.4443029 107.08435556 -216.76007261 105.90677537 -216.07617188 104.72900391 C-214.2870938 101.64976166 -212.49033244 98.57512576 -210.68762207 95.50384521 C-209.99050406 94.31557771 -209.29474835 93.12650978 -208.60046387 91.93658447 C-199.22315392 75.89320798 -199.22315392 75.89320798 -191.17236328 72.23632812 C-187.90077919 70.67597404 -185.03131928 68.58149501 -182.06640625 66.51171875 C-177.08334432 63.12736314 -172.05715214 59.93448357 -166.75390625 57.07421875 C-166.14812744 56.74462158 -165.54234863 56.41502441 -164.91821289 56.07543945 C-161.54102233 54.30714971 -158.21351196 52.90433898 -154.58203125 51.73828125 C-145.99836593 49.13979911 -145.99836593 49.13979911 -140.0859375 42.83984375 C-138.69616505 39.06677787 -137.92341316 35.19701081 -137.12890625 31.26171875 C-132.57039936 16.62972565 -122.93049589 6.27729853 -109.56640625 -0.92578125 C-96.84685294 -6.9114534 -82.98110129 -9.79658882 -69.12890625 -11.73828125 C-68.44965088 -11.83399414 -67.77039551 -11.92970703 -67.07055664 -12.02832031 C-44.73875438 -14.84981825 -18.22640984 -14.88211446 0 0 Z " fill="#EEF4F9" transform="translate(338.12890625,72.73828125)"/>
<path d="M0 0 C7.39838953 0.59714465 14.23536378 2.19133359 21.375 4.1875 C22.43460937 4.46658203 23.49421875 4.74566406 24.5859375 5.03320312 C34.56694614 7.80366692 43.32116727 12.00373018 51 19 C51.58910156 19.47695312 52.17820312 19.95390625 52.78515625 20.4453125 C69.4052245 34.12465297 81.14775807 54.1753324 91 73 C91.35545898 73.66854004 91.71091797 74.33708008 92.07714844 75.02587891 C104.38809998 98.25485273 113.10791478 122.81568264 116 149 C116.13148438 150.16660156 116.26296875 151.33320313 116.3984375 152.53515625 C116.72925212 156.35740627 116.90239748 160.16626364 117 164 C117.02723145 165.06009277 117.05446289 166.12018555 117.08251953 167.21240234 C117.81695386 201.37976548 114.3470202 238.66668228 93 267 C91.28646231 268.7653062 89.53611659 270.49566523 87.75 272.1875 C81.82981484 277.84516931 79.90229076 283.19532435 78.0234375 291.01171875 C77.85247559 291.72054199 77.68151367 292.42936523 77.50537109 293.15966797 C77.17609805 294.5623393 76.8630644 295.96895343 76.56884766 297.37939453 C75.57109432 301.83909951 74.16758713 304.7024923 71 308 C66.32394562 310.33802719 60.73395605 309.5691947 55.91796875 307.98828125 C52.90827901 306.72761876 49.95150113 305.39088973 47 304 C45.58601697 303.389579 44.16985831 302.78412733 42.75 302.1875 C41.8425 301.795625 40.935 301.40375 40 301 C37.39051297 306.76833975 35.41513958 312.66857969 33.4765625 318.6953125 C31.42786065 323.28050235 28.51578231 325.90105782 24.5 328.8125 C14.69296226 332.1398878 4.16518974 329.49438136 -5.62979126 327.23614502 C-22.2901776 323.41606651 -38.95323378 321.12512349 -55.94262695 319.36962891 C-58.67121718 319.03974904 -61.31560069 318.58303412 -64 318 C-64.01458252 316.6895874 -64.02916504 315.3791748 -64.04418945 314.02905273 C-64.34024289 289.21558431 -64.91027141 264.52646674 -67.08999634 239.80020142 C-68.5613371 223.09612871 -69.18666623 206.46416524 -69.18530273 189.69458008 C-69.18749047 186.700539 -69.20574544 183.70686722 -69.22460938 180.71289062 C-69.28608529 159.78955293 -67.31099181 139.47550849 -63 119 C-62.77795898 117.94216309 -62.55591797 116.88432617 -62.32714844 115.79443359 C-58.88856511 99.74376989 -55.85832316 86.56845554 -44.2734375 74.40625 C-41.40667841 71.37201701 -38.85723354 68.14849987 -36.28125 64.8671875 C-34.5568477 62.69987365 -32.81031261 60.56693452 -31.03125 58.4453125 C-20.53207018 45.86691444 -9.77013035 32.50563663 -4 17 C-3.69707031 16.21367187 -3.39414062 15.42734375 -3.08203125 14.6171875 C-1.32488119 9.74996433 -0.4681578 5.14973583 0 0 Z " fill="#F0F6FB" transform="translate(363,122)"/>
<path d="M0 0 C9.06505513 8.19201612 14.76764609 18.81004921 20.87109375 29.26171875 C21.27875977 29.94186035 21.68642578 30.62200195 22.10644531 31.32275391 C27.57776022 40.56883287 26.45329733 50.10774115 23.87109375 60.26171875 C17.89073006 79.20732403 5.74175831 94.59656865 -7.04272461 109.45751953 C-11.42080216 114.55433873 -15.58130653 119.80759499 -19.6875 125.125 C-21.08416094 126.91942998 -22.50161032 128.69903537 -23.9765625 130.4296875 C-38.1123996 147.38546142 -39.97295808 178.06419903 -42.12890625 199.26171875 C-42.22316895 200.17477783 -42.31743164 201.08783691 -42.41455078 202.02856445 C-43.36535021 212.56985152 -43.36866747 223.1236338 -43.37890625 233.69921875 C-43.38091034 234.70941071 -43.38291443 235.71960266 -43.38497925 236.76040649 C-43.39640552 260.58370812 -42.08657763 284.38071386 -39.86277771 308.10031128 C-39.21204869 315.21025273 -38.9953868 322.23347043 -39.03125 329.37109375 C-39.03225708 330.34191895 -39.03326416 331.31274414 -39.03430176 332.31298828 C-39.03946499 335.87924409 -39.05342517 339.44548283 -39.06640625 343.01171875 C-39.08703125 351.01421875 -39.10765625 359.01671875 -39.12890625 367.26171875 C-63.87890625 366.76671875 -63.87890625 366.76671875 -89.12890625 366.26171875 C-89.43828125 362.50796875 -89.74765625 358.75421875 -90.06640625 354.88671875 C-90.16171631 353.76604004 -90.25702637 352.64536133 -90.35522461 351.49072266 C-92.24800608 327.66531173 -92.33502572 303.77143913 -92.31640625 279.88671875 C-92.31613937 279.11695961 -92.3158725 278.34720047 -92.31559753 277.5541153 C-92.2794501 194.34460971 -92.2794501 194.34460971 -85.12890625 168.26171875 C-83.23421657 155.88627731 -89.81779081 143.0168086 -96.80078125 133.1953125 C-102.77033866 125.67326952 -109.47455858 118.86152081 -116.31640625 112.13671875 C-129.60808526 98.95154358 -143.20378235 81.79283359 -143.69140625 62.19921875 C-142.8868713 46.07195002 -138.57964754 28.55106447 -129.12890625 15.26171875 C-128.67902344 14.62878906 -128.22914063 13.99585937 -127.765625 13.34375 C-114.21287495 -3.9503226 -89.69432921 -8.855581 -69.12890625 -11.73828125 C-68.44965088 -11.83399414 -67.77039551 -11.92970703 -67.07055664 -12.02832031 C-44.73875438 -14.84981825 -18.22640984 -14.88211446 0 0 Z " fill="#095CA3" transform="translate(338.12890625,72.73828125)"/>
<path d="M0 0 C16.26812645 17.39438136 15.52779161 49.42345929 15.12353516 71.38781738 C14.8191698 80.28749664 13.81800467 89.12886628 12.86349487 97.9777832 C10.60173217 119.11617827 9.47737783 139.92203165 10.09765625 161.17724609 C10.11699722 162.06346649 10.1363382 162.94968689 10.15626526 163.86276245 C10.19379887 165.49247792 10.24864412 167.12194197 10.32554626 168.75027466 C10.49395894 176.26915666 7.03107994 180.76101219 2.625 186.6875 C-5.16718134 197.7808991 -9.42885514 210.14880733 -13.91931152 222.82647705 C-15.017905 225.92550836 -16.12706582 229.02057093 -17.23925781 232.11474609 C-20.1965924 240.3459543 -23.14001114 248.58209074 -26.07226562 256.82226562 C-27.65615927 261.27056226 -29.25346929 265.7138284 -30.86035156 270.15386963 C-31.44906519 271.78910896 -32.03248567 273.4262645 -32.61035156 275.06536865 C-33.40975006 277.33225945 -34.22622704 279.59229371 -35.046875 281.8515625 C-35.27332703 282.50775574 -35.49977905 283.16394897 -35.73309326 283.84002686 C-37.35634 288.23083322 -39.34329884 291.07237571 -43 294 C-49.93730708 295.80142483 -57.67854352 293.09007288 -64.3125 291.0625 C-65.3543042 290.74966064 -66.3961084 290.43682129 -67.46948242 290.11450195 C-81.79146795 285.67589252 -95.28279158 279.5468296 -108.625 272.75 C-109.42526611 272.34998779 -110.22553223 271.94997559 -111.05004883 271.5378418 C-118.46870131 267.63316013 -118.46870131 267.63316013 -120 263 C-120.44773331 256.57288708 -118.04771325 251.29825253 -115.2618103 245.64053345 C-110.18745117 235.32312716 -105.62699611 224.95910516 -101.6875 214.15234375 C-101.34024809 213.20360256 -101.34024809 213.20360256 -100.98598099 212.23569489 C-95.60483264 197.4712767 -91.23511474 182.4388496 -86.96160889 167.32403564 C-72.72165488 116.97673808 -72.72165488 116.97673808 -62.6875 93.9375 C-62.23294434 92.88135498 -61.77838867 91.82520996 -61.31005859 90.73706055 C-52.65872515 70.83840328 -42.95708969 51.72179422 -32 33 C-31.31539665 31.82263681 -30.63116636 30.64505662 -29.94726562 29.46728516 C-28.15818755 26.38804291 -26.36142619 23.31340701 -24.55871582 20.24212646 C-23.86159781 19.05385896 -23.1658421 17.86479103 -22.47155762 16.67486572 C-14.2403022 2.59224176 -14.2403022 2.59224176 -9.125 -1.5 C-5.61460797 -2.3259746 -3.28023137 -1.34723789 0 0 Z " fill="#095CA2" transform="translate(152,148)"/>
<path d="M0 0 C9.07107065 1.24261242 14.12317952 10.23879425 19.375 17.0625 C56.54388828 66.21016436 76.10989109 124.75102517 67.8125 186.6875 C64.31548287 209.81300398 57.2320206 236.62828401 39.75 253.1875 C33.82981484 258.84516931 31.90229076 264.19532435 30.0234375 272.01171875 C29.85247559 272.72054199 29.68151367 273.42936523 29.50537109 274.15966797 C29.17609805 275.5623393 28.8630644 276.96895343 28.56884766 278.37939453 C27.57109432 282.83909951 26.16758713 285.7024923 23 289 C19.20288302 290.89855849 15.13520136 290.45160664 11 290 C2.67449859 287.19450721 -5.24390727 283.03970447 -13.125 279.1875 C-21.48151638 275.12797783 -29.85994663 271.17695293 -38.43017578 267.58666992 C-42.46112048 265.85724578 -45.93739137 264.1777443 -49 261 C-50.11254622 257.61731897 -50.29999092 255.81461968 -49.06640625 252.46484375 C-48.57011719 251.63082031 -48.07382812 250.79679688 -47.5625 249.9375 C-46.73492187 248.52017578 -46.73492187 248.52017578 -45.890625 247.07421875 C-43.22944651 242.74705455 -40.56111789 238.42534485 -37.83203125 234.140625 C-34.95459986 229.20788547 -32.9416316 224.31254289 -31.6875 218.75 C-29.06090148 208.88685453 -23.29080523 200.84132195 -17.62304688 192.50390625 C-3.89393419 172.13032224 -8.32557367 152.8422221 -12.04275513 129.9442749 C-18.54899927 89.79807375 -20.30782279 44.81562433 -2.453125 7.1875 C-1.33235041 4.7290267 -0.50026869 2.63299309 0 0 Z " fill="#095CA2" transform="translate(411,141)"/>
<path d="M0 0 C0.66 0 1.32 0 2 0 C2.90657035 27.65039575 -13.72193103 49.21159066 -30.91381836 69.19580078 C-35.29189591 74.29261998 -39.45240028 79.54587624 -43.55859375 84.86328125 C-44.95525469 86.65771123 -46.37270407 88.43731662 -47.84765625 90.16796875 C-61.98349335 107.12374267 -63.84405183 137.80248028 -66 159 C-66.14139404 160.36958862 -66.14139404 160.36958862 -66.28564453 161.7668457 C-67.23644396 172.30813277 -67.23976122 182.86191505 -67.25 193.4375 C-67.25200409 194.44769196 -67.25400818 195.45788391 -67.256073 196.49868774 C-67.26749927 220.32198937 -65.95767138 244.11899511 -63.73387146 267.83859253 C-63.08314244 274.94853398 -62.86648055 281.97175168 -62.90234375 289.109375 C-62.90335083 290.0802002 -62.90435791 291.05102539 -62.90539551 292.05126953 C-62.91055874 295.61752534 -62.92451892 299.18376408 -62.9375 302.75 C-62.958125 310.7525 -62.97875 318.755 -63 327 C-87.75 326.505 -87.75 326.505 -113 326 C-113.4640625 320.369375 -113.4640625 320.369375 -113.9375 314.625 C-114.08046509 312.94398193 -114.08046509 312.94398193 -114.22631836 311.22900391 C-116.11912106 287.40332565 -116.2040241 263.50989538 -116.1875 239.625 C-116.18738041 238.85656643 -116.18726082 238.08813286 -116.1871376 237.29641342 C-116.1825883 214.15140365 -116.05860125 191.07117078 -114 168 C-113.83129395 166.06833984 -113.83129395 166.06833984 -113.65917969 164.09765625 C-113.31788133 160.33303199 -112.9501384 156.57261799 -112.5625 152.8125 C-112.45252686 151.73589111 -112.34255371 150.65928223 -112.22924805 149.55004883 C-111.11662572 139.92567182 -109.19008456 132.34622054 -102.6875 125 C-101.90342773 124.10063721 -101.90342773 124.10063721 -101.10351562 123.18310547 C-95.53395853 117.06941514 -89.0929261 113.12210915 -82 109 C-56.23926535 92.88735891 -40.52482043 71.11613843 -25.33251953 45.25634766 C-23.48514586 42.12820045 -21.59213262 39.03115183 -19.6875 35.9375 C-19.06101562 34.91785156 -18.43453125 33.89820313 -17.7890625 32.84765625 C-16.64435212 31.02561724 -15.47454895 29.21895625 -14.2734375 27.43359375 C-8.4960857 18.79394665 -4.29834775 9.43464584 0 0 Z " fill="#1A355E" transform="translate(362,113)"/>
<path d="M0 0 C6.95660771 0.57021375 13.31427305 2.01302694 20 4 C20 4.66 20 5.32 20 6 C19.01 6.495 18.02 6.99 17 7.5 C2.9170356 15.68908795 -3.87724356 32.18789691 -10.625 46.3125 C-10.96493988 47.01942993 -11.30487976 47.72635986 -11.65512085 48.45471191 C-36.70577139 100.59097438 -61.48006721 157.30775373 -61.31567383 216.13623047 C-61.31250156 218.49883773 -61.3361436 220.86020101 -61.36132812 223.22265625 C-61.46622865 248.38522012 -54.94418492 272.84865673 -38 292 C-37.20529297 292.93585938 -37.20529297 292.93585938 -36.39453125 293.890625 C-28.21903991 302.85338588 -14.39948792 311.14811195 -2.03295898 312.16113281 C0.16567981 312.20646014 2.36343564 312.235154 4.5625 312.25 C5.33013672 312.270625 6.09777344 312.29125 6.88867188 312.3125 C11.17417608 312.34536956 11.17417608 312.34536956 15.08984375 310.796875 C16.19368503 308.96789613 16.19368503 308.96789613 15.9453125 306.52734375 C14.78556972 303.42670912 13.56014725 302.46030746 10.875 300.5625 C10.06417969 299.964375 9.25335938 299.36625 8.41796875 298.75 C7.62003906 298.1725 6.82210937 297.595 6 297 C-0.37588492 292.24594212 -3.4889087 287.5332739 -6 280 C-7.28706532 260.79951741 -0.93411313 247.24366782 8.21142578 230.82519531 C13.61187417 221.08898978 17.94296608 211.73308989 21 201 C21.23188522 200.22931183 21.46377045 199.45862366 21.7026825 198.6645813 C28.98812312 173.56926316 27.46932938 146.00729929 27.55297852 120.13330078 C27.57825455 112.47919981 27.61826945 104.82528054 27.67487907 97.17134857 C27.69084398 94.54560167 27.69494763 91.92003917 27.69789124 89.29425049 C27.79009739 68.40083411 28.02456105 39.16190905 43.0078125 22.80859375 C44.9375 21.125 44.9375 21.125 48 19 C47.43265259 23.52527101 46.20688794 27.01957014 44.25 31.125 C30.26506257 62.4463573 30.18256926 101.54007303 35 135 C35.31802314 137.30464408 35.63570377 139.60933544 35.953125 141.9140625 C37.66496211 154.18934928 37.66496211 154.18934928 39.55712891 166.43774414 C40.5436254 172.54561725 41.36284875 178.49643677 41.375 184.6875 C41.41173828 185.69006836 41.41173828 185.69006836 41.44921875 186.71289062 C41.51091755 197.49989762 35.34485611 206.02227975 29.5 214.625 C21.33105832 226.22811923 21.33105832 226.22811923 16.8125 239.5 C14.64625588 248.90292776 9.15930916 256.92417411 4.11328125 265.03125 C0.08983508 271.05639408 0.08983508 271.05639408 -1 278 C2.77576182 282.56009659 6.8553771 284.67054341 12.14453125 286.98828125 C12.91431808 287.33634323 13.68410492 287.68440521 14.47721863 288.04301453 C16.91766663 289.14355161 19.36480397 290.22819353 21.8125 291.3125 C23.4763796 292.05950502 25.13979651 292.80754151 26.80273438 293.55664062 C30.86323385 295.38307108 34.92980416 297.19528753 39 299 C38.69154484 300.42191601 38.38099331 301.84337734 38.06958008 303.26464844 C37.89687088 304.0562738 37.72416168 304.84789917 37.54621887 305.66351318 C36.782294 308.93125159 35.77926644 312.07783172 34.6875 315.25 C34.29949219 316.41015625 33.91148437 317.5703125 33.51171875 318.765625 C31.40680808 323.2691548 28.4801152 325.92691648 24.5 328.8125 C14.69296226 332.1398878 4.16518974 329.49438136 -5.62979126 327.23614502 C-22.2901776 323.41606651 -38.95323378 321.12512349 -55.94262695 319.36962891 C-58.67121718 319.03974904 -61.31560069 318.58303412 -64 318 C-64.01458252 316.6895874 -64.02916504 315.3791748 -64.04418945 314.02905273 C-64.34024289 289.21558431 -64.91027141 264.52646674 -67.08999634 239.80020142 C-68.5613371 223.09612871 -69.18666623 206.46416524 -69.18530273 189.69458008 C-69.18749047 186.700539 -69.20574544 183.70686722 -69.22460938 180.71289062 C-69.28608529 159.78955293 -67.31099181 139.47550849 -63 119 C-62.77795898 117.94216309 -62.55591797 116.88432617 -62.32714844 115.79443359 C-58.88856511 99.74376989 -55.85832316 86.56845554 -44.2734375 74.40625 C-41.40667841 71.37201701 -38.85723354 68.14849987 -36.28125 64.8671875 C-34.5568477 62.69987365 -32.81031261 60.56693452 -31.03125 58.4453125 C-20.53207018 45.86691444 -9.77013035 32.50563663 -4 17 C-3.69707031 16.21367187 -3.39414062 15.42734375 -3.08203125 14.6171875 C-1.32488119 9.74996433 -0.4681578 5.14973583 0 0 Z " fill="#CFDBED" transform="translate(363,122)"/>
<path d="M0 0 C1.18484798 3.55454395 0.67100382 5.34725072 0 9 C-1.70228802 26.02288017 5.10101095 40.19924385 15.5859375 53.2578125 C20.93805709 59.74678725 26.68046167 65.74287315 32.6875 71.625 C44.67802967 83.41283875 57.82937479 99.07330115 58.3125 116.75 C58.16171265 120.58570209 57.68963847 124.28663562 57.07421875 128.07421875 C51.56310589 163.12164454 50.81800712 198.23887154 50.8125 233.625 C50.81197758 234.38014011 50.81145515 235.13528023 50.8109169 235.91330338 C50.63390095 267.83726476 50.63390095 267.83726476 52.53051758 299.67822266 C52.98007477 304.36601647 53.12127229 308.98119612 53.0625 313.6875 C53.05798828 314.40099609 53.05347656 315.11449219 53.04882812 315.84960938 C53.03730574 317.56644474 53.0193863 319.28323543 53 321 C51.91396484 321.0501123 50.82792969 321.10022461 49.70898438 321.15185547 C44.63905906 321.38746101 39.56947688 321.62994807 34.5 321.875 C33.58397003 321.91913025 32.66794006 321.9632605 31.72415161 322.00872803 C21.1070237 322.52540891 10.52197708 323.12400018 -0.0625 324.125 C-7.93733135 324.84057858 -15.77978431 325.26435041 -23.6875 325.375 C-24.65115479 325.40094238 -25.61480957 325.42688477 -26.60766602 325.45361328 C-30.93767477 325.46528761 -33.32710199 325.41448471 -37.08203125 323.1015625 C-39.76430368 320.16253486 -40.12595931 318.60614449 -40.14717102 314.73100281 C-40.15432632 313.83516479 -40.16148163 312.93932678 -40.16885376 312.01634216 C-40.17154266 311.03085892 -40.17423157 310.04537567 -40.17700195 309.0300293 C-40.18357315 307.99413666 -40.19014435 306.95824402 -40.19691467 305.89096069 C-40.21667682 302.45204604 -40.2283163 299.0131751 -40.23828125 295.57421875 C-40.24235678 294.40180948 -40.2464323 293.22940022 -40.25063133 292.02146339 C-40.27150373 285.81712646 -40.28580084 279.61281173 -40.29516602 273.40844727 C-40.30623758 266.99222044 -40.34064315 260.57633975 -40.38033772 254.1602354 C-40.4064515 249.23347823 -40.41485317 244.3068042 -40.41844749 239.3799839 C-40.42332638 237.01445997 -40.43497714 234.64894006 -40.45348549 232.28348351 C-40.47776659 228.97475938 -40.47693182 225.66693976 -40.4699707 222.3581543 C-40.48278076 221.37874374 -40.49559082 220.39933319 -40.50878906 219.39024353 C-40.46649877 213.88275351 -40.05309528 211.0670271 -36 207 C-34.73616147 203.20848441 -34.97368844 199.73743125 -35.078125 195.796875 C-35.51138347 171.52890558 -34.38260174 147.78945203 -31.77832031 123.65136719 C-28.55428952 93.12972361 -26.34992157 58.34323731 -43 31 C-44.95216435 29.04783565 -46.53199953 28.15173355 -49 27 C-47.61987977 25.79427404 -46.22017172 24.61094249 -44.8125 23.4375 C-43.64654297 22.44556641 -43.64654297 22.44556641 -42.45703125 21.43359375 C-40 20 -40 20 -37.46484375 19.96875 C-27.29960831 24.22171697 -19.28687928 43.43576925 -15.20703125 53.12109375 C-4.63330582 79.60925792 -5.53283272 107.48595643 -9.875 135.25 C-16.03886078 175.12318 -16.22668725 213.68447465 -10 253.625 C-9.8462793 254.61314697 -9.69255859 255.60129395 -9.53417969 256.61938477 C-8.58288366 262.38181614 -7.27830259 267.9140733 -5.5859375 273.50537109 C-4.97889958 276.08983504 -4.89579378 278.35517516 -5 281 C-7 280 -7 280 -8 277.04296875 C-9.81485458 270.04585363 -11.4721463 263.14168169 -12.5078125 255.9765625 C-12.89748885 253.6199484 -13.38874049 251.38189209 -13.953125 249.06640625 C-15.41879511 242.55802046 -16.00494574 235.9451417 -16.625 229.3125 C-16.6907019 228.620354 -16.75640381 227.92820801 -16.82409668 227.21508789 C-19.21828499 201.44625497 -18.56118803 175.67658025 -14.9012146 150.06646729 C-14.32163212 145.99576067 -13.76808169 141.9214835 -13.2109375 137.84765625 C-13.10301376 137.06142883 -12.99509003 136.27520142 -12.88389587 135.46514893 C-7.82589007 98.5980157 -8.39421573 64.00061488 -30 32 C-31.31290708 30.31719563 -32.63987364 28.64487442 -34 27 C-34.2449701 33.02898633 -33.45142683 37.86561482 -31.75 43.625 C-22.72264999 76.09972072 -19.59555914 110.58202395 -19.79418945 144.18408203 C-19.81261441 147.39493713 -19.81469671 150.60550329 -19.81445312 153.81640625 C-19.84303452 172.93085287 -20.91726695 191.29567719 -23.90136719 210.18725586 C-24.37588836 213.19312735 -24.8374201 216.20077671 -25.296875 219.20898438 C-26.58847269 227.57901566 -27.93161892 235.9014981 -29.70703125 244.18359375 C-31.00959078 250.48437722 -31.42367747 256.45338943 -31.3125 262.875 C-31.31572266 263.82890625 -31.31894531 264.7828125 -31.32226562 265.765625 C-31.2348624 277.36641634 -28.840699 286.38439638 -21.02734375 295.234375 C-12.02776793 303.92362062 -1.10494932 307.26731165 11.14477539 307.24658203 C19.45416842 307.10018751 26.65804465 305.30856884 33.1796875 299.98828125 C42.1847106 290.15232254 43.23263941 276.89710624 43.5625 264.22265625 C43.6167086 262.55496185 43.6167086 262.55496185 43.67201233 260.85357666 C43.74858162 258.48294769 43.82162016 256.11220242 43.89138794 253.74136353 C44.07507201 247.51969152 44.28541926 241.29893305 44.49609375 235.078125 C44.53721786 233.85124466 44.57834198 232.62436432 44.62071228 231.36030579 C44.95478054 221.66677559 45.45196022 211.9920097 46.0625 202.3125 C47.0968189 185.6145446 47.65960524 168.91849191 47.96032715 152.19165039 C47.98684684 150.72662108 48.0146041 149.26161367 48.0435791 147.79663086 C48.12776048 143.52875346 48.19320141 139.26135667 48.23016357 134.99279785 C48.24923562 133.07679082 48.28180702 131.16093263 48.31494141 129.24511719 C48.38766059 109.62170988 40.74294493 95.03002785 27.22265625 81.1484375 C25.34580217 79.26964951 23.45478162 77.40634052 21.5625 75.54296875 C4.80863894 58.9168048 -5.95773639 39.0491881 -7.25 15.25 C-7.32734375 14.0640625 -7.4046875 12.878125 -7.484375 11.65625 C-7.67049409 8.77140403 -7.84213418 5.88650584 -8 3 C-5.36 2.01 -2.72 1.02 0 0 Z " fill="#CFDBED" transform="translate(196,119)"/>
<path d="M0 0 C16.26812645 17.39438136 15.52779161 49.42345929 15.12353516 71.38781738 C14.8191698 80.28749664 13.81800467 89.12886628 12.86349487 97.9777832 C10.60173217 119.11617827 9.47737783 139.92203165 10.09765625 161.17724609 C10.11699722 162.06346649 10.1363382 162.94968689 10.15626526 163.86276245 C10.19379887 165.49247792 10.24864412 167.12194197 10.32554626 168.75027466 C10.49395894 176.26915666 7.03107994 180.76101219 2.625 186.6875 C-5.16718134 197.7808991 -9.42885514 210.14880733 -13.91931152 222.82647705 C-15.017905 225.92550836 -16.12706582 229.02057093 -17.23925781 232.11474609 C-20.1965924 240.3459543 -23.14001114 248.58209074 -26.07226562 256.82226562 C-27.65615927 261.27056226 -29.25346929 265.7138284 -30.86035156 270.15386963 C-31.44906519 271.78910896 -32.03248567 273.4262645 -32.61035156 275.06536865 C-33.40975006 277.33225945 -34.22622704 279.59229371 -35.046875 281.8515625 C-35.27332703 282.50775574 -35.49977905 283.16394897 -35.73309326 283.84002686 C-37.35634 288.23083322 -39.34329884 291.07237571 -43 294 C-49.93730708 295.80142483 -57.67854352 293.09007288 -64.3125 291.0625 C-65.3543042 290.74966064 -66.3961084 290.43682129 -67.46948242 290.11450195 C-81.79146795 285.67589252 -95.28279158 279.5468296 -108.625 272.75 C-109.42526611 272.34998779 -110.22553223 271.94997559 -111.05004883 271.5378418 C-115.26031642 269.321839 -118.20143021 267.63841682 -120 263 C-120.14453125 260.68359375 -120.14453125 260.68359375 -119.8125 258.4375 C-119.71582031 257.69371094 -119.61914062 256.94992187 -119.51953125 256.18359375 C-118.97439197 253.89236927 -118.13342579 252.05695791 -117 250 C-111.57222915 250.49470055 -107.49423836 251.97195444 -102.6875 254.5625 C-96.6784763 257.6800868 -90.62060075 260.61748951 -84.4375 263.375 C-83.70039795 263.70830322 -82.9632959 264.04160645 -82.20385742 264.38500977 C-72.15973028 268.83725458 -62.19386017 271.28039625 -51.5625 267.25 C-42.5323298 263.3995721 -37.5193605 256.26254475 -33.95361328 247.39892578 C-26.18898587 226.48276224 -19.27275835 203.63589199 -27.03515625 181.78515625 C-28.30871305 178.10885665 -28.85345706 174.88338799 -29 171 C-28.34 170.34 -27.68 169.68 -27 169 C-23.64574518 169.22361699 -21.48944412 169.66929452 -18.6875 171.5625 C-14.78282857 173.65104518 -11.33750556 173.67438249 -7 173 C-2.63960054 170.9432078 0.11262903 168.38382969 2.3046875 164.02734375 C4.46297137 157.73436999 3.14778924 152.25616873 0.9375 146.1875 C-2.80520703 134.43408669 -0.77373814 121.15839454 0 109 C-22.49688005 128.09189136 -28.55184899 151.91364019 -33.5625 179.875 C-35.22507188 189.12721252 -37.00640288 198.07344048 -40 207 C-40.30260742 207.9278833 -40.30260742 207.9278833 -40.61132812 208.87451172 C-45.90559775 225.02993597 -52.82407244 240.60240669 -60 256 C-60.66 256 -61.32 256 -62 256 C-59.91804527 249.23287145 -57.22999018 242.88068678 -54.3125 236.4375 C-43.73519831 212.51971965 -37.38663412 187.92034678 -32.87426758 162.23095703 C-29.7087355 144.82804479 -22.38957625 123.01726555 -7.359375 112.078125 C-6.53953125 111.51609375 -5.7196875 110.9540625 -4.875 110.375 C-1.68280238 107.6593172 -1.04100296 106.35965321 -0.55786133 102.12182617 C-0.56406638 100.57444976 -0.59447477 99.02704775 -0.64453125 97.48046875 C-0.65892746 96.64504044 -0.67332367 95.80961212 -0.68815613 94.9488678 C-0.89600844 86.4199631 -1.64133639 77.94550667 -2.54418945 69.46557617 C-2.81268188 66.93578626 -3.06462929 64.40474162 -3.31445312 61.87304688 C-4.15391977 53.58130932 -5.17296948 45.33887116 -6.51953125 37.11328125 C-6.69776176 36.0131797 -6.69776176 36.0131797 -6.8795929 34.89085388 C-8.59895357 24.83876148 -11.84343154 18.15656846 -19 11 C-17.76056233 9.20101037 -16.50803104 7.41103677 -15.25 5.625 C-14.20585937 4.12839844 -14.20585937 4.12839844 -13.140625 2.6015625 C-8.91012799 -2.53988095 -6.1121715 -2.51035615 0 0 Z " fill="#19355F" transform="translate(152,148)"/>
<path d="M0 0 C4.83256305 0.41421969 6.82679218 2.46413986 10 6 C8.99329611 8.05516048 7.96065037 10.06818004 6.81640625 12.05078125 C-4.53357311 32.52317394 -3.187295 61.74881784 -3.18530273 84.5144043 C-3.18748875 87.29817018 -3.20572272 90.08153806 -3.22460938 92.86523438 C-3.26074675 104.38795915 -2.54789461 115.58400437 -1 127 C-0.87955322 127.9499585 -0.75910645 128.89991699 -0.63500977 129.87866211 C2.04307349 150.21147801 8.87915881 166.04579263 25.3515625 178.82421875 C27.21882299 180.23950983 29.09805914 181.63184636 31 183 C30.34 184.32 29.68 185.64 29 187 C27.73724243 187.02187378 27.73724243 187.02187378 26.44897461 187.04418945 C23.2970731 187.10559154 20.14579539 187.17980731 16.99438477 187.26245117 C15.63577457 187.29550934 14.27703334 187.32359961 12.91821289 187.34643555 C2.52829786 187.41528459 2.52829786 187.41528459 -7 191 C-7.7940625 191.43699219 -8.588125 191.87398437 -9.40625 192.32421875 C-15.73281763 196.44356969 -22.27825509 201.7077778 -25 209 C-25.35552862 212.53183992 -25.35552862 212.53183992 -25.3125 216.375 C-25.32925781 217.66148437 -25.34601563 218.94796875 -25.36328125 220.2734375 C-24.8766766 225.26505941 -23.46904485 228.61490057 -19.8125 232.0625 C-16.27962059 234.49626137 -12.66935505 236.77835575 -9 239 C-9.875 243.875 -9.875 243.875 -11 245 C-15.04580031 245.16857501 -18.69380823 244.89691206 -22.6875 244.25 C-25.83354292 243.89506182 -26.7321736 243.85970998 -29.625 245.375 C-31.72736195 249.38860009 -31.28827664 252.72631581 -30 257 C-28.15222575 259.77009471 -28.15222575 259.77009471 -25 262 C-24.24589844 262.60457031 -23.49179687 263.20914062 -22.71484375 263.83203125 C-11.71816333 272.3022284 0.65955568 279.6749639 15 278 C18.24771257 276.37614371 20.19791385 275.01132601 22.4375 272.1875 C23.3003345 268.8320325 23.16940219 266.21284209 22 263 C19.86838238 259.50679888 17.49676798 256.23993129 15 253 C14.51789063 253.5775 14.03578125 254.155 13.5390625 254.75 C12.59160156 255.86375 12.59160156 255.86375 11.625 257 C10.99851562 257.7425 10.37203125 258.485 9.7265625 259.25 C9.15679687 259.8275 8.58703125 260.405 8 261 C7.34 261 6.68 261 6 261 C7.3811521 257.75900103 9.34416973 255.24058088 11.57885742 252.53662109 C41.2315904 216.56211495 47.83469521 171.11359683 44.7890625 125.86621094 C44.25927284 120.4739957 43.23126328 115.27020511 42 110 C41.80132324 109.07509766 41.60264648 108.15019531 41.39794922 107.19726562 C38.41198306 93.33880396 34.39050366 80.65727699 28 68 C27.49597656 66.96746094 26.99195313 65.93492187 26.47265625 64.87109375 C21.17191025 54.54858838 14.1179237 45.64339546 5.65234375 37.7421875 C4 36 4 36 4 34 C13.68895932 38.34185153 19.40218455 48.42017071 25 57 C25.53496094 57.78890625 26.06992187 58.5778125 26.62109375 59.390625 C43.60657685 85.72042536 48.36712255 117.95131623 48.375 148.625 C48.37690338 149.42102631 48.37880676 150.21705261 48.38076782 151.03720093 C48.37684584 165.50389913 47.18181362 179.59909438 43.6875 193.6875 C43.35939331 195.02699707 43.35939331 195.02699707 43.0246582 196.39355469 C41.22620571 203.51514282 38.98714598 210.28094535 36 217 C35.70722168 217.66483398 35.41444336 218.32966797 35.11279297 219.01464844 C31.05811435 228.15468148 26.69736974 236.75661816 21 245 C25.90168437 245.51596678 28.11420651 245.51537076 32.4375 243 C38.09346561 237.52399693 41.40659617 229.89750151 45 223 C45.67811338 221.73553116 46.35648876 220.47120278 47.03515625 219.20703125 C55.78165501 202.60750491 61.93569256 184.71729038 68 167 C68.33 167 68.66 167 69 167 C68.32634354 194.5862322 62.51975922 230.83701373 41.76953125 251.1875 C40.97933594 251.93 40.18914062 252.6725 39.375 253.4375 C33.72766573 258.94294145 31.8298659 264.47872157 30.01953125 272.015625 C29.76393433 273.07801392 29.76393433 273.07801392 29.50317383 274.16186523 C29.17516158 275.56383508 28.86298405 276.96963316 28.5690918 278.37915039 C27.5709144 282.83884676 26.16769914 285.7023757 23 289 C19.20288302 290.89855849 15.13520136 290.45160664 11 290 C2.67449859 287.19450721 -5.24390727 283.03970447 -13.125 279.1875 C-21.48151638 275.12797783 -29.85994663 271.17695293 -38.43017578 267.58666992 C-42.46112048 265.85724578 -45.93739137 264.1777443 -49 261 C-50.11254622 257.61731897 -50.29999092 255.81461968 -49.06640625 252.46484375 C-48.57011719 251.63082031 -48.07382812 250.79679688 -47.5625 249.9375 C-46.73492187 248.52017578 -46.73492187 248.52017578 -45.890625 247.07421875 C-43.22944651 242.74705455 -40.56111789 238.42534485 -37.83203125 234.140625 C-34.95459986 229.20788547 -32.9416316 224.31254289 -31.6875 218.75 C-29.06090148 208.88685453 -23.29080523 200.84132195 -17.62304688 192.50390625 C-3.89393419 172.13032224 -8.32557367 152.8422221 -12.04275513 129.9442749 C-18.54899927 89.79807375 -20.30782279 44.81562433 -2.453125 7.1875 C-1.33235041 4.7290267 -0.50026869 2.63299309 0 0 Z " fill="#193660" transform="translate(411,141)"/>
<path d="M0 0 C2.53832551 0.0107847 5.07595276 0.00001087 7.61425781 -0.01269531 C9.25748851 -0.01137448 10.90071878 -0.00881368 12.54394531 -0.00488281 C13.28791565 -0.00893127 14.03188599 -0.01297974 14.79840088 -0.01715088 C20.04981802 0.02894907 25.30175052 0.48043951 30.27832031 2.26074219 C34.42717596 6.54446775 34.98891718 10.81263571 34.90332031 16.57324219 C34.89421631 17.36375977 34.8851123 18.15427734 34.87573242 18.96875 C34.573483 26.8951031 32.32021928 33.59277027 29.27587891 40.84912109 C28.13916978 43.59714184 27.07766307 46.36938461 26.01660156 49.14746094 C25.23087092 51.16517962 24.44312783 53.18211585 23.65332031 55.19824219 C23.09559937 56.6479541 23.09559937 56.6479541 22.52661133 58.12695312 C22.16365967 59.02575195 21.80070801 59.92455078 21.42675781 60.85058594 C20.94988525 62.05509399 20.94988525 62.05509399 20.46337891 63.28393555 C18.96215537 65.78813971 18.04393385 66.33634133 15.27832031 67.26074219 C12.90187592 67.60243693 10.51141991 67.85076024 8.11816406 68.04199219 C7.41979431 68.10041794 6.72142456 68.15884369 6.00189209 68.21903992 C3.7404016 68.40693364 1.47819113 68.58379615 -0.78417969 68.76074219 C-3.10578703 68.95109891 -5.42713341 69.14441955 -7.74845886 69.33818054 C-9.27883384 69.46592065 -10.80928034 69.59280694 -12.33979797 69.71882629 C-18.98942307 70.27005545 -25.62210623 70.94295022 -32.2512207 71.70214844 C-35.7614166 72.09560922 -39.18861142 72.34958143 -42.72167969 72.26074219 C-61.12553564 37.13460088 -61.12553564 37.13460088 -58.72167969 22.26074219 C-57.20582062 19.06740672 -55.18738193 16.76904836 -52.72167969 14.26074219 C-52.17640625 13.64328125 -51.63113281 13.02582031 -51.06933594 12.38964844 C-38.52300533 -0.37631159 -16.64650606 -0.08417136 0 0 Z " fill="#19345D" transform="translate(286.7216796875,69.7392578125)"/>
<path d="M0 0 C1.14000488 3.42001465 0.8232377 4.76265575 0.07421875 8.234375 C-0.14459961 9.27625977 -0.36341797 10.31814453 -0.58886719 11.39160156 C-0.82766602 12.49987305 -1.06646484 13.60814453 -1.3125 14.75 C-3.26276114 24.1428215 -5.06466556 33.44332204 -6 43 C-6.08540039 43.84377197 -6.17080078 44.68754395 -6.25878906 45.55688477 C-7.2148853 56.17246584 -7.23968917 66.78749556 -7.25 77.4375 C-7.25200409 78.44769196 -7.25400818 79.45788391 -7.256073 80.49868774 C-7.26749927 104.32198937 -5.95767138 128.11899511 -3.73387146 151.83859253 C-3.08314462 158.94851022 -2.86663866 165.97183965 -2.90234375 173.109375 C-2.9037587 174.20219788 -2.90517365 175.29502075 -2.90663147 176.42095947 C-2.91216706 179.86400249 -2.92470694 183.3069771 -2.9375 186.75 C-2.94252334 189.10416572 -2.94708478 191.45833247 -2.95117188 193.8125 C-2.96211528 199.54169246 -2.97933431 205.27083469 -3 211 C-7.29 211 -11.58 211 -16 211 C-16 210.67 -16 210.34 -16 210 C-12.04 210 -8.08 210 -4 210 C-4 206.37 -4 202.74 -4 199 C-4.99 199.33 -5.98 199.66 -7 200 C-14.68469321 200.84084593 -20.81214386 200.77617523 -27.05859375 195.91015625 C-31.90710004 191.13969433 -35.64220065 185.97708734 -36 179 C-34.91332031 178.96132813 -34.91332031 178.96132813 -33.8046875 178.921875 C-25.63028022 178.47451644 -25.63028022 178.47451644 -19 174 C-15.79111796 168.56055362 -14.23077543 163.32448347 -15.3203125 157.04296875 C-16.67751754 152.9635536 -19.16271174 150.15914753 -22.8203125 147.8515625 C-25.51889998 146.79727564 -27.67169838 146.7692363 -30.5625 146.8125 C-31.51253906 146.81894531 -32.46257812 146.82539063 -33.44140625 146.83203125 C-36.1204942 146.89938566 -36.1204942 146.89938566 -39 148 C-38.63777441 137.07077965 -37.81320682 126.36705463 -36.10424805 115.55981445 C-34.39919822 104.66974007 -33.83381685 93.7559139 -33.4375 82.75 C-33.37272461 81.04263672 -33.37272461 81.04263672 -33.30664062 79.30078125 C-33.20201199 76.53393504 -33.0998311 73.76702274 -33 71 C-31.02246094 70.52799479 -29.04492188 70.05598958 -27.06738281 69.58398438 C-22.81481339 68.38273897 -19.99831432 66.67391071 -17.70703125 62.83203125 C-15.12261569 57.14278882 -13.99723107 52.04303688 -16 46 C-18.38205674 41.81999238 -21.74959322 39.18592349 -26 37 C-23.87449468 22.38715093 -10.17013084 9.73735931 0 0 Z " fill="#0C5DA2" transform="translate(302,229)"/>
<path d="M0 0 C-0.70760501 4.48584623 -2.25145207 8.55668421 -3.9140625 12.7578125 C-4.20679047 13.50151093 -4.49951843 14.24520935 -4.80111694 15.01144409 C-5.42249885 16.58408748 -6.0463019 18.15577611 -6.67236328 19.7265625 C-7.61192047 22.09206989 -8.53470226 24.46366979 -9.45703125 26.8359375 C-13.70816655 37.61794217 -18.64495714 46.955799 -26 56 C-30.27105387 54.57631538 -32.16124098 51.46064069 -34.8125 48 C-35.65723877 46.90026855 -35.65723877 46.90026855 -36.51904297 45.77832031 C-43.54229371 36.32505961 -49.03911199 25.95853135 -54.58056641 15.59277344 C-55.55519456 13.8124929 -56.59316357 12.06589228 -57.68115234 10.35253906 C-59 8 -59 8 -59 5 C-49.18577169 3.51720639 -39.37949401 2.33646019 -29.5 1.375 C-27.55287109 1.17390625 -27.55287109 1.17390625 -25.56640625 0.96875 C-16.99504748 0.12959599 -8.60824653 -0.16528635 0 0 Z " fill="#CCD9EC" transform="translate(304,137)"/>
<path d="M0 0 C0.33 0 0.66 0 1 0 C1.06316406 1.11375 1.12632812 2.2275 1.19140625 3.375 C2.48632828 21.08922038 9.15012392 33.3713824 19.140625 47.796875 C21.54392339 51.27805429 23.68639131 54.80822298 25.75 58.5 C35.39242968 75.3626065 50.15978805 87.80270015 69 93 C68.55269531 93.71542969 68.10539062 94.43085938 67.64453125 95.16796875 C61.74136111 104.89750077 57.40340415 114.85694438 55 126 C53.16228144 123.24342216 52.16285707 120.76741568 51.09912109 117.6574707 C45.28984389 100.85052273 34.26404079 89.11352843 21.8125 76.875 C8.52082099 63.68982483 -5.0748761 46.53111484 -5.5625 26.9375 C-5.13547089 17.85531996 -3.63699278 8.36508338 0 0 Z " fill="#1A365F" transform="translate(200,108)"/>
<path d="M0 0 C4.39063739 2.15540381 7.47901962 4.79836603 10 9 C11.42475275 13.79819959 11.47704163 17.73244181 9.375 22.3125 C6.83240602 26.72904732 3.87081252 29.37639583 -1 31 C-6.61599916 31.36826224 -10.17665989 31.21556007 -15 28 C-18.94752778 24.0951482 -20.84478755 20.86254942 -21.3125 15.25 C-21.23667782 10.6669704 -19.8631789 7.54531556 -17 4 C-11.96844758 -0.78611084 -6.6108623 -0.97537313 0 0 Z " fill="#F99D1C" transform="translate(277,375)"/>
<path d="M0 0 C4.39063739 2.15540381 7.47901962 4.79836603 10 9 C11.42475275 13.79819959 11.47704163 17.73244181 9.375 22.3125 C6.83240602 26.72904732 3.87081252 29.37639583 -1 31 C-6.61599916 31.36826224 -10.17665989 31.21556007 -15 28 C-18.94752778 24.0951482 -20.84478755 20.86254942 -21.3125 15.25 C-21.23667782 10.6669704 -19.8631789 7.54531556 -17 4 C-11.96844758 -0.78611084 -6.6108623 -0.97537313 0 0 Z " fill="#F99D1C" transform="translate(277,266)"/>
<path d="M0 0 C-1.7113894 9.81317963 -5.26800278 19.40963995 -13 26 C-16.78230497 28.233993 -19.59703539 28.4554791 -24 28 C-29.59657928 25.03710508 -33.58538889 20.87450841 -36 15 C-36.23046875 12.2734375 -36.23046875 12.2734375 -36.1875 9.375 C-36.18105469 8.41335937 -36.17460937 7.45171875 -36.16796875 6.4609375 C-36 4 -36 4 -35 2 C-23.68662883 -0.9560744 -11.58187514 -0.21552301 0 0 Z " fill="#F0F6FB" transform="translate(297,138)"/>
<path d="M0 0 C0.66 0 1.32 0 2 0 C0.5132854 3.9670256 -1.3688339 7.5848857 -3.375 11.3125 C-6.95917312 18.30015498 -9.03873289 25.23264899 -10.578125 32.91357422 C-10.85297587 34.27287718 -11.14389174 35.6290612 -11.453125 36.98095703 C-17.4408552 63.29987028 -14.07695394 91.69230545 -11.71594238 118.25875854 C-10.29558568 134.25440904 -9.40413171 149.93422497 -10 166 C-10.020625 167.29035156 -10.04125 168.58070313 -10.0625 169.91015625 C-10.87238669 191.54931634 -18.68119021 210.41151582 -27.53955078 229.76025391 C-31.88359272 239.39673611 -35.18782886 248.3087766 -35.625 258.9375 C-35.66367187 259.71673828 -35.70234375 260.49597656 -35.7421875 261.29882812 C-35.83544127 263.19887379 -35.91875962 265.09940278 -36 267 C-36.66 267 -37.32 267 -38 267 C-38.99793698 248.88189981 -33.33040531 235.60620656 -26.02807617 219.26953125 C-17.06345019 199.05449041 -12.79567092 178.2646437 -12.8125 156.1640625 C-12.81330566 155.03408844 -12.81411133 153.90411438 -12.81494141 152.73989868 C-12.89679988 141.09141751 -13.75644283 129.53444386 -14.71063232 117.9302063 C-21.66431112 32.49646668 -21.66431112 32.49646668 0 0 Z " fill="#28292A" transform="translate(389,134)"/>
<path d="M0 0 C4.23195437 1.52389182 6.27900499 4.63073548 8.75 8.1875 C9.18538086 8.81043945 9.62076172 9.43337891 10.06933594 10.07519531 C31.99824167 42.09556241 33.98296165 77.79388833 28.125 115.25 C21.96113922 155.12318 21.77331275 193.68447465 28 233.625 C28.1537207 234.61314697 28.30744141 235.60129395 28.46582031 236.61938477 C29.41711634 242.38181614 30.72169741 247.9140733 32.4140625 253.50537109 C33.02110042 256.08983504 33.10420622 258.35517516 33 261 C31 260 31 260 30 257.04296875 C28.18514542 250.04585363 26.5278537 243.14168169 25.4921875 235.9765625 C25.10251115 233.6199484 24.61125951 231.38189209 24.046875 229.06640625 C22.58120489 222.55802046 21.99505426 215.9451417 21.375 209.3125 C21.3092981 208.620354 21.24359619 207.92820801 21.17590332 207.21508789 C18.78171501 181.44625497 19.43881197 155.67658025 23.0987854 130.06646729 C23.67836788 125.99576067 24.23191831 121.9214835 24.7890625 117.84765625 C24.89698624 117.06142883 25.00490997 116.27520142 25.11610413 115.46514893 C30.15834089 78.71295409 29.75447069 43.85618103 8 12 C5.88056822 9.25232098 3.71763083 6.56821623 1.46875 3.92578125 C0 2 0 2 0 0 Z " fill="#232425" transform="translate(158,139)"/>
<path d="M0 0 C9.68895932 4.34185153 15.40218455 14.42017071 21 23 C21.80244141 24.18335938 21.80244141 24.18335938 22.62109375 25.390625 C39.60657685 51.72042536 44.36712255 83.95131623 44.375 114.625 C44.37690338 115.42102631 44.37880676 116.21705261 44.38076782 117.03720093 C44.37684584 131.50389913 43.18181362 145.59909438 39.6875 159.6875 C39.46876221 160.58049805 39.25002441 161.47349609 39.0246582 162.39355469 C37.22584525 169.5165702 34.97921859 176.27640833 32 183 C31.72317383 183.64356445 31.44634766 184.28712891 31.16113281 184.95019531 C24.49844581 200.35720883 15.73914468 214.87707559 4 227 C3.34 227 2.68 227 2 227 C3.3811521 223.75900103 5.34416973 221.24058088 7.57885742 218.53662109 C37.2315904 182.56211495 43.83469521 137.11359683 40.7890625 91.86621094 C40.25927284 86.4739957 39.23126328 81.27020511 38 76 C37.80132324 75.07509766 37.60264648 74.15019531 37.39794922 73.19726562 C34.41198306 59.33880396 30.39050366 46.65727699 24 34 C23.49597656 32.96746094 22.99195313 31.93492187 22.47265625 30.87109375 C17.17191025 20.54858838 10.1179237 11.64339546 1.65234375 3.7421875 C0 2 0 2 0 0 Z " fill="#010B14" transform="translate(415,175)"/>
<path d="M0 0 C0.495 1.485 0.495 1.485 1 3 C-0.54822891 5.36787951 -2.13032151 7.53416803 -3.875 9.75 C-18.06738911 28.47581787 -29.30929447 49.81321446 -37 72 C-37.26119629 72.7439502 -37.52239258 73.48790039 -37.79150391 74.25439453 C-44.97899601 94.99113056 -48.56188623 116.41261326 -51.85742188 138.04443359 C-53.55197314 149.05038035 -55.85752808 159.55753346 -59.8125 170 C-60.06821777 170.67716064 -60.32393555 171.35432129 -60.58740234 172.05200195 C-63.59553252 179.80937613 -67.15562581 187.94689816 -73 194 C-73.66 194 -74.32 194 -75 194 C-73.75093104 190.5961391 -72.3214786 187.85975565 -70.1875 184.9375 C-58.86430321 168.10349799 -55.94674195 146.77834981 -53 127.125 C-50.8020226 112.4983462 -48.24915312 98.19801466 -44 84 C-43.73026367 83.08927734 -43.46052734 82.17855469 -43.18261719 81.24023438 C-34.21994088 51.73679934 -19.41323485 23.92294648 0 0 Z " fill="#010E18" transform="translate(138,202)"/>
<path d="M0 0 C0.66 0 1.32 0 2 0 C4.90189967 9.84573102 5.30220569 19.46396741 5.3125 29.6875 C5.31765625 30.89035645 5.3228125 32.09321289 5.328125 33.33251953 C5.19355383 51.43955132 2.50509864 69.0123453 -0.9375 86.75 C-1.28921145 88.59489975 -1.64012452 90.43995189 -1.99023438 92.28515625 C-2.67000696 95.86127413 -3.3535567 99.43662922 -4.04125977 103.01123047 C-10.14074093 134.72457207 -15.68008295 166.59944283 -5.8046875 198.171875 C-5 201 -5 201 -5 204 C-5.66 204 -6.32 204 -7 204 C-7.79884268 201.08513893 -8.58911818 198.1683589 -9.375 195.25 C-9.59671875 194.44433594 -9.8184375 193.63867188 -10.046875 192.80859375 C-19.43271154 157.74973374 -11.03532289 122.33598829 -4.26196289 87.5793457 C-0.6368225 68.87572838 2.55062342 50.40999811 2.3125 31.3125 C2.31461921 29.96419044 2.31787799 28.61588221 2.32226562 27.26757812 C2.2853269 20.44734645 1.90424311 14.02324226 0.42651367 7.35620117 C-0.02575763 4.85770639 -0.07068307 2.53360782 0 0 Z " fill="#262727" transform="translate(340,212)"/>
<path d="M0 0 C1.4540625 0.0309375 1.4540625 0.0309375 2.9375 0.0625 C7.270751 7.61074368 8.57840518 12.15974439 7.9375 21.0625 C6.34748831 25.74885023 4.21504532 28.51634207 -0.0625 31.0625 C-3.48583251 30.90327523 -4.6256237 30.4993763 -7.0625 28.0625 C-7.51673861 24.47825451 -7.38651789 20.85970652 -7.375 17.25 C-7.39111328 16.25162109 -7.40722656 15.25324219 -7.42382812 14.22460938 C-7.42988786 5.12894053 -7.42988786 5.12894053 -4.0625 1.0625 C-3.0625 0.0625 -3.0625 0.0625 0 0 Z " fill="#D0DCEE" transform="translate(361.0625,292.9375)"/>
<path d="M0 0 C0.99 0.33 1.98 0.66 3 1 C4.16095792 3.40354569 5.10963913 5.68429591 6 8.1875 C6.26200195 8.90784424 6.52400391 9.62818848 6.79394531 10.37036133 C9.17609245 17.12447528 10.80010892 23.93966528 12 31 C12.16991455 31.81170654 12.3398291 32.62341309 12.51489258 33.4597168 C14.4866319 43.96605861 14.26663062 54.48153108 14.20581055 65.13452148 C14.18771339 68.39900703 14.18530055 71.66320412 14.18554688 74.92773438 C14.16652664 86.03948983 13.92448121 97.11085408 13.36656189 108.20849609 C12.93974651 116.78576545 12.76023063 125.35007909 12.75 133.9375 C12.74832825 134.70017181 12.74665649 135.46284363 12.74493408 136.24862671 C12.74291962 151.74650079 13.60217393 167.06255628 18 182 C18.125 184.9375 18.125 184.9375 18 187 C17.34 186.67 16.68 186.34 16 186 C15.21707148 183.53499848 14.57886388 181.13943999 14 178.625 C13.835 177.97789062 13.67 177.33078125 13.5 176.6640625 C10.0470368 161.98896888 9.68776649 146.77737056 9.79418945 131.77587891 C9.81244447 129.13303861 9.81469779 126.49055324 9.81445312 123.84765625 C9.83464646 114.17734249 10.12537534 104.55023064 10.62890625 94.89367676 C12.16463837 64.58903254 12.80208761 34.76882516 2 6 C1.32577022 4.00253695 0.6567173 2.003289 0 0 Z " fill="#232424" transform="translate(199,234)"/>
<path d="M0 0 C4.38503461 2.15265336 7.42301125 4.83717201 10 9 C10.25 12.3125 10.25 12.3125 10 15 C3.2911355 17.60900286 -2.68653038 19.56853441 -9.75 17 C-12.86304139 14.23285209 -14.81593757 11.0058216 -16 7 C-15.80042077 4.2216471 -15.25434011 3.25376468 -13.2734375 1.27734375 C-9.09650508 -1.06948942 -4.64218451 -0.60638114 0 0 Z " fill="#FCC828" transform="translate(277,375)"/>
<path d="M0 0 C4.38503461 2.15265336 7.42301125 4.83717201 10 9 C10.25 12.3125 10.25 12.3125 10 15 C3.2911355 17.60900286 -2.68653038 19.56853441 -9.75 17 C-12.86304139 14.23285209 -14.81593757 11.0058216 -16 7 C-15.80042077 4.2216471 -15.25434011 3.25376468 -13.2734375 1.27734375 C-9.09650508 -1.06948942 -4.64218451 -0.60638114 0 0 Z " fill="#FCC828" transform="translate(277,266)"/>
<path d="M0 0 C0 0.66 0 1.32 0 2 C-1.72265625 3.48046875 -1.72265625 3.48046875 -4.0625 5.1875 C-13.24046436 12.20341659 -19.13503441 20.13632576 -25 30 C-25.76376953 31.27037109 -25.76376953 31.27037109 -26.54296875 32.56640625 C-30.57144312 39.89203195 -32.21817264 47.9082891 -34 56 C-34.24363281 57.07636719 -34.48726562 58.15273438 -34.73828125 59.26171875 C-35.93338417 64.68975605 -37.02770479 70.12073932 -38.015625 75.58984375 C-42.33142273 99.03888759 -50.12629612 120.3536512 -60 142 C-60.93360053 144.05598651 -61.8671944 146.11197604 -62.80078125 148.16796875 C-63.53366164 149.77873344 -64.2666615 151.38944382 -65 153 C-65.66 153 -66.32 153 -67 153 C-64.91804527 146.23287145 -62.22999018 139.88068678 -59.3125 133.4375 C-48.73519831 109.51971965 -42.38663412 84.92034678 -37.87426758 59.23095703 C-33.70635611 36.31733757 -23.28594103 16.66230501 -5 2 C-2 0 -2 0 0 0 Z " fill="#010D17" transform="translate(157,251)"/>
<path d="M0 0 C1.80401362 1.80401362 1.29972264 4.37177627 1.375 6.8125 C1.33263569 14.49738584 -0.66109595 21.67690109 -5.41796875 27.8359375 C-7 29 -7 29 -11 29 C-13.89405374 23.21189252 -12.58603687 12.78696905 -10.75 6.75 C-8.59070327 1.39211887 -5.89513338 -0.63731172 0 0 Z " fill="#18345E" transform="translate(115,284)"/>
<path d="M0 0 C2 2 2 2 2.13525391 3.83398438 C2.08288574 4.57970703 2.03051758 5.32542969 1.9765625 6.09375 C1.92467773 6.94525635 1.87279297 7.7967627 1.81933594 8.67407227 C1.75520508 9.60662842 1.69107422 10.53918457 1.625 11.5 C0.11465641 38.95524275 1.76399224 65.45350922 6 92.625 C6.23058105 94.10722046 6.23058105 94.10722046 6.46582031 95.61938477 C7.41711634 101.38181614 8.72169741 106.9140733 10.4140625 112.50537109 C11.02110042 115.08983504 11.10420622 117.35517516 11 120 C9 119 9 119 8 116.04296875 C6.18514542 109.04585363 4.5278537 102.14168169 3.4921875 94.9765625 C3.10251115 92.6199484 2.61125951 90.38189209 2.046875 88.06640625 C0.58120489 81.55802046 -0.00494574 74.9451417 -0.625 68.3125 C-0.6907019 67.620354 -0.75640381 66.92820801 -0.82409668 66.21508789 C-2.81069595 44.83316708 -4.67138495 21.08011528 0 0 Z " fill="#303132" transform="translate(180,280)"/>
<path d="M0 0 C0.66 0 1.32 0 2 0 C0.5132854 3.9670256 -1.3688339 7.5848857 -3.375 11.3125 C-7.31262324 18.98923652 -9.27253286 26.56561617 -11 35 C-11.20725708 35.98892746 -11.20725708 35.98892746 -11.41870117 36.99783325 C-14.47067558 52.02940981 -14.34857596 66.90554517 -14.1875 82.1875 C-14.17241312 84.70246587 -14.15873187 87.21744058 -14.14648438 89.73242188 C-14.11382601 95.82181138 -14.06394964 101.91086279 -14 108 C-14.33 108 -14.66 108 -15 108 C-19.2817421 71.91103084 -20.99988204 31.49982306 0 0 Z " fill="#1F2020" transform="translate(389,134)"/>
<path d="M0 0 C11.96541529 10.84248328 18.79743403 31.966676 24 47 C24.2357373 47.64710938 24.47147461 48.29421875 24.71435547 48.9609375 C30.10727577 64.1653641 30.58472019 84.53876277 26 100 C25.01 100.495 25.01 100.495 24 101 C24.14295891 99.60386935 24.28951558 98.20810692 24.4375 96.8125 C24.51871094 96.03519531 24.59992188 95.25789063 24.68359375 94.45703125 C25 92 25 92 25.51953125 89.6171875 C30.9263694 60.16530489 15.20109755 29.8566546 1.09936523 5.26855469 C0 3 0 3 0 0 Z " fill="#010C16" transform="translate(410,212)"/>
<path d="M0 0 C0.515625 0.70125 1.03125 1.4025 1.5625 2.125 C6.29443443 7.70625599 11.56119479 11.58349111 18 15 C17.67 15.66 17.34 16.32 17 17 C15.02514455 17.15489062 13.04322611 17.22226521 11.0625 17.25 C4.05421977 17.64450584 -0.42017831 19.88126029 -6 24 C-5.3351174 20.21848018 -4.27795278 16.74273398 -3 13.125 C-1.49301025 8.7023127 -0.42232892 4.64561816 0 0 Z " fill="#020406" transform="translate(405,304)"/>
<path d="M0 0 C0.33 0 0.66 0 1 0 C1.23299838 5.95602103 0.53928603 11.46349331 -0.42333984 17.33911133 C-4.30699404 41.1523898 -5.06581308 64.9574735 2.1953125 88.171875 C3 91 3 91 3 94 C2.34 94 1.68 94 1 94 C0.20115732 91.08513893 -0.58911818 88.1683589 -1.375 85.25 C-1.59671875 84.44433594 -1.8184375 83.63867188 -2.046875 82.80859375 C-4.9220172 72.069092 -6.38997044 61.62220855 -6.375 50.5 C-6.37483887 49.35233154 -6.37467773 48.20466309 -6.37451172 47.0222168 C-6.1717841 31.27028045 -4.12639461 15.22305037 0 0 Z " fill="#212122" transform="translate(332,322)"/>
<path d="M0 0 C0.33 0 0.66 0 1 0 C6.63298414 62.58704809 6.63298414 62.58704809 2 84 C-0.39143584 80.41284623 -0.09419832 79.60293845 0.375 75.4375 C1.8574774 58.04071703 1.12490404 40.69280629 -0.35424805 23.32421875 C-0.99490951 15.40885516 -1.0797425 7.89379315 0 0 Z " fill="#313334" transform="translate(375,235)"/>
<path d="M0 0 C0.66 0 1.32 0 2 0 C0.75462901 8.83230213 -0.83037557 17.56844212 -2.59082031 26.3112793 C-4.86596827 37.87223102 -5.25318084 49.37844713 -5.5625 61.125 C-5.60579302 62.66928003 -5.64941033 64.213551 -5.69335938 65.7578125 C-5.79930941 69.50511139 -5.9008787 73.25251353 -6 77 C-6.66 77 -7.32 77 -8 77 C-8.64465654 50.74760215 -7.41817594 25.41119844 0 0 Z " fill="#28292A" transform="translate(320,256)"/>
<path d="M0 0 C0.99 0.33 1.98 0.66 3 1 C4.16095792 3.40354569 5.10963913 5.68429591 6 8.1875 C6.26200195 8.90784424 6.52400391 9.62818848 6.79394531 10.37036133 C9.17609245 17.12447528 10.80010892 23.93966528 12 31 C12.17063965 31.88276611 12.3412793 32.76553223 12.51708984 33.67504883 C14.22435242 43.26088368 14.23049816 52.61761765 14.125 62.3125 C14.11494009 63.93944755 14.10581961 65.5664012 14.09765625 67.19335938 C14.07590427 71.12906025 14.04154447 75.06446034 14 79 C13.67 79 13.34 79 13 79 C12.98541748 78.39865234 12.97083496 77.79730469 12.95581055 77.17773438 C12.3020859 52.72889453 11.26745096 26.80854472 0.953125 4.22265625 C0 2 0 2 0 0 Z " fill="#161617" transform="translate(199,234)"/>
<path d="M0 0 C1.8125 0.0625 1.8125 0.0625 4 1 C6.33091192 5.01881365 7.03061197 7.08164103 6.875 11.75 C6 15 6 15 4.75 17 C2.26895749 18.41773857 0.70039348 17.6353867 -2 17 C-2.05398987 14.72942623 -2.09278742 12.45848712 -2.125 10.1875 C-2.14820313 8.92292969 -2.17140625 7.65835937 -2.1953125 6.35546875 C-2 3 -2 3 0 0 Z " fill="#D0DCEE" transform="translate(354,264)"/>
<path d="M0 0 C3.83637239 5.75455859 4.60334756 13.28853338 6 20 C6.16209961 20.74958984 6.32419922 21.49917969 6.49121094 22.27148438 C9.81901751 38.17023595 8.9213254 53.89697458 8 70 C7.67 70 7.34 70 7 70 C6.98541748 69.19071045 6.97083496 68.3814209 6.95581055 67.54760742 C6.54759622 47.21045615 5.24349514 27.98247923 -0.328125 8.3203125 C-0.98647475 5.06683988 -0.93328697 3.14685223 0 0 Z " fill="#021525" transform="translate(450,230)"/>
<path d="M0 0 C0.66 0 1.32 0 2 0 C1.49511627 6.7528199 -0.38826463 12.27776412 -3 18.5 C-3.39864258 19.45962646 -3.79728516 20.41925293 -4.20800781 21.40795898 C-6.77530076 27.45317878 -9.55368266 33.3244013 -12.75 39.0625 C-13.10191406 39.69800781 -13.45382812 40.33351563 -13.81640625 40.98828125 C-16.12249639 44.96132044 -18.6607254 47.91175479 -22 51 C-21.24455278 47.39747646 -19.71247741 44.73982213 -17.76196289 41.61938477 C-9.63287542 28.61134636 -4.21918281 14.70991415 0 0 Z " fill="#010C16" transform="translate(428,330)"/>
<path d="M0 0 C0.66 0 1.32 0 2 0 C4.97506915 10.09398462 5.28653378 20.04472634 5.25 30.5 C5.24677734 31.81178223 5.24355469 33.12356445 5.24023438 34.47509766 C5.18221324 40.42608167 4.9315094 46.11226324 4 52 C3.67 52 3.34 52 3 52 C2.98018066 50.96705811 2.96036133 49.93411621 2.93994141 48.86987305 C2.863084 44.98748981 2.77450013 41.10544293 2.68261719 37.22338867 C2.64465474 35.55255845 2.60974893 33.88165557 2.578125 32.21069336 C2.35449255 19.6400607 2.35449255 19.6400607 0.41552734 7.23754883 C-0.0402578 4.78321812 -0.06769722 2.49076247 0 0 Z " fill="#202122" transform="translate(340,212)"/>
<path d="M0 0 C0.33 0 0.66 0 1 0 C1.95501347 20.44389214 2.05339205 40.55691018 1 61 C0.67 61 0.34 61 0 61 C-0.17431514 58.97981205 -0.33883485 56.95877953 -0.5 54.9375 C-0.5928125 53.81214844 -0.685625 52.68679688 -0.78125 51.52734375 C-1.51140795 39.40295506 -0.91350076 27.19139322 -0.5 15.0625 C-0.45159923 13.58920004 -0.4034212 12.11589274 -0.35546875 10.64257812 C-0.23953183 7.0949643 -0.12063345 3.5474576 0 0 Z " fill="#3D3E3F" transform="translate(211,289)"/>
<path d="M0 0 C3.875 0.875 3.875 0.875 5 2 C5.39488214 6.10677424 5.3856935 8.35258591 3.25 11.9375 C1 14 1 14 -3 14 C-3.32374517 8.49633208 -3.53286034 4.56327794 0 0 Z " fill="#18355F" transform="translate(333,133)"/>
<path d="M0 0 C0.33 0 0.66 0 1 0 C1.3384865 4.16626463 1.66985752 8.33306653 2 12.5 C2.09539062 13.67304688 2.19078125 14.84609375 2.2890625 16.0546875 C2.9563283 24.53849558 3.40312203 32.58126785 2 41 C1.67 41 1.34 41 1 41 C-1.59415759 11.65458453 -1.59415759 11.65458453 0 0 Z " fill="#3A3C3D" transform="translate(375,235)"/>
<path d="M0 0 C0.99 0.495 0.99 0.495 2 1 C2.57270291 3.80054719 3.03638939 6.54916025 3.4375 9.375 C4.39158814 15.64746395 5.54399439 21.67087444 7.44921875 27.73828125 C8.05571934 30.22880494 8.09492113 32.44616952 8 35 C6 34 6 34 5 31.04296875 C-0.45505363 10.01117994 -0.45505363 10.01117994 0 0 Z " fill="#292A2B" transform="translate(183,365)"/>
<path d="M0 0 C1.051875 1.1446875 1.051875 1.1446875 2.125 2.3125 C6.25789596 6.17585927 9.28592141 7.80954682 14.9375 8.4375 C19.46511051 8.28107584 22.2662619 6.46426715 26 4 C26.66 3.67 27.32 3.34 28 3 C26.46698025 7.29245529 24.0322912 9.01922537 20 11 C14.65546991 11.79413523 10.39606674 11.67310361 5.5 9.3125 C3.00697393 7.00645089 1.4502066 5.06154727 0 2 C0 1.34 0 0.68 0 0 Z " fill="#040503" transform="translate(257,288)"/>
<path d="M0 0 C4.37217314 1.52470703 6.42210563 4.90552935 8.9375 8.5625 C9.37553955 9.19003174 9.8135791 9.81756348 10.26489258 10.46411133 C17.55174638 21.02388553 17.55174638 21.02388553 19 25 C18.67 25.99 18.34 26.98 18 28 C17.52691406 27.20078125 17.05382812 26.4015625 16.56640625 25.578125 C12.32882846 18.5402765 7.84418497 11.93441165 2.78515625 5.4609375 C1 3 1 3 0 0 Z " fill="#1F1F20" transform="translate(158,139)"/>
<path d="M0 0 C1.051875 1.1446875 1.051875 1.1446875 2.125 2.3125 C6.25789596 6.17585927 9.28592141 7.80954682 14.9375 8.4375 C19.46511051 8.28107584 22.2662619 6.46426715 26 4 C26.66 3.67 27.32 3.34 28 3 C26.47255894 7.27683498 23.99924698 9.00037651 20 11 C15.04876304 11.81568978 10.56313377 11.64863406 6.0625 9.3125 C3.04252706 7.03211227 1.53320278 5.42715916 0 2 C0 1.34 0 0.68 0 0 Z " fill="#070706" transform="translate(257,397)"/>
<path d="M0 0 C0.31563182 5.26053037 -0.33409063 8.44573816 -3 13 C-3.99 12.67 -4.98 12.34 -6 12 C-6.36521739 4.69565217 -6.36521739 4.69565217 -4.6875 1.5 C-3 0 -3 0 0 0 Z " fill="#173763" transform="translate(119,255)"/>
<path d="M0 0 C0.99 0.33 1.98 0.66 3 1 C4.19307757 3.54641928 5.18890472 5.98605804 6.125 8.625 C6.38925781 9.32496094 6.65351563 10.02492187 6.92578125 10.74609375 C8.52752011 15.12851632 9.71029081 19.30671108 10 24 C9.34 24.99 8.68 25.98 8 27 C7.75765625 25.94941406 7.5153125 24.89882813 7.265625 23.81640625 C5.60411493 16.79761272 3.98961191 10.08699604 0.734375 3.6015625 C0 2 0 2 0 0 Z " fill="#272829" transform="translate(199,234)"/>
<path d="M0 0 C2.0625 0.4375 2.0625 0.4375 4 1 C4.36923077 7.52307692 4.36923077 7.52307692 2.5 9.9375 C2.005 10.288125 1.51 10.63875 1 11 C0.01 10.67 -0.98 10.34 -2 10 C-1.85950482 8.52031676 -1.71245174 7.04125484 -1.5625 5.5625 C-1.48128906 4.73878906 -1.40007812 3.91507813 -1.31640625 3.06640625 C-1 1 -1 1 0 0 Z " fill="#183560" transform="translate(317,144)"/>
<path d="M0 0 C2 2 2 2 2.13525391 4.24658203 C2.08288574 5.15778809 2.03051758 6.06899414 1.9765625 7.0078125 C1.89921875 8.48701172 1.89921875 8.48701172 1.8203125 9.99609375 C1.75585938 11.02863281 1.69140625 12.06117188 1.625 13.125 C1.56828125 14.16527344 1.5115625 15.20554687 1.453125 16.27734375 C1.31138791 18.85223418 1.15995446 21.4261874 1 24 C0.67 24 0.34 24 0 24 C-1.0194713 16.09909742 -2.08314624 7.8117984 0 0 Z " fill="#3E4041" transform="translate(180,280)"/>
<path d="M0 0 C0.66 0 1.32 0 2 0 C0.27502493 4.6029598 -1.9095871 8.93255824 -4.125 13.3125 C-4.49753906 14.05306641 -4.87007813 14.79363281 -5.25390625 15.55664062 C-6.16744806 17.37201217 -7.08347487 19.18613282 -8 21 C-8.77936251 18.71920922 -9.13422953 17.42311011 -8.39501953 15.09301758 C-8.06099121 14.45001709 -7.72696289 13.8070166 -7.3828125 13.14453125 C-7.02316406 12.44005859 -6.66351563 11.73558594 -6.29296875 11.00976562 C-5.90753906 10.28466797 -5.52210938 9.55957031 -5.125 8.8125 C-4.74730469 8.07580078 -4.36960937 7.33910156 -3.98046875 6.58007812 C-1.19764881 1.19764881 -1.19764881 1.19764881 0 0 Z " fill="#202122" transform="translate(389,134)"/>
<path d="M0 0 C0.99 0.33 1.98 0.66 3 1 C2.57847656 1.55429687 2.15695312 2.10859375 1.72265625 2.6796875 C1.17480469 3.40414063 0.62695312 4.12859375 0.0625 4.875 C-0.48277344 5.59429687 -1.02804687 6.31359375 -1.58984375 7.0546875 C-3.9503294 10.31098073 -4.23828329 12.64176614 -4.5625 16.625 C-4.68818359 18.12933594 -4.68818359 18.12933594 -4.81640625 19.6640625 C-4.87699219 20.43492187 -4.93757813 21.20578125 -5 22 C-5.33 22 -5.66 22 -6 22 C-6.144375 20.88625 -6.28875 19.7725 -6.4375 18.625 C-6.78372035 15.17857953 -6.78372035 15.17857953 -8 13 C-6.6015625 10.21484375 -6.6015625 10.21484375 -4.625 6.9375 C-3.65433594 5.31134766 -3.65433594 5.31134766 -2.6640625 3.65234375 C-1 1 -1 1 0 0 Z " fill="#193F6D" transform="translate(390,339)"/>
<path d="M0 0 C2.08443564 3.77316972 2.10182142 6.11957193 1.6875 10.4375 C1.58824219 11.54996094 1.48898437 12.66242188 1.38671875 13.80859375 C1.05044874 16.58367052 0.59684462 19.2708387 0 22 C-2.19413151 18.70880274 -2.2045464 18.24874522 -1.7578125 14.55078125 C-1.66113281 13.70322266 -1.56445312 12.85566406 -1.46484375 11.98242188 C-1.35269531 11.10134766 -1.24054688 10.22027344 -1.125 9.3125 C-1.02058594 8.41982422 -0.91617187 7.52714844 -0.80859375 6.60742188 C-0.54931018 4.40351151 -0.27941634 2.20143331 0 0 Z " fill="#38393A" transform="translate(342,260)"/>
<path d="M0 0 C0.66 0 1.32 0 2 0 C1.6889315 2.06271639 1.37608484 4.12516466 1.0625 6.1875 C0.88847656 7.33605469 0.71445312 8.48460937 0.53515625 9.66796875 C0.08620687 12.46325212 -0.42082162 15.22933586 -1 18 C-3.60813002 14.08780497 -2.87100307 11.37898789 -2 7 C-1.40826887 4.63307548 -0.72829862 2.33055558 0 0 Z " fill="#393A3B" transform="translate(320,256)"/>
<path d="M0 0 C0.66 0.66 1.32 1.32 2 2 C1.828125 4.4609375 1.828125 4.4609375 1.25 7.375 C1.06953125 8.33148438 0.8890625 9.28796875 0.703125 10.2734375 C0.06037635 12.76587393 -0.74881573 14.76271287 -2 17 C-3.80789124 10.91891127 -1.83657235 5.83137661 0 0 Z " fill="#021627" transform="translate(123,294)"/>
<path d="M0 0 C0.33 0 0.66 0 1 0 C0.67 5.94 0.34 11.88 0 18 C-0.33 18 -0.66 18 -1 18 C-1.144375 16.88625 -1.28875 15.7725 -1.4375 14.625 C-1.78372035 11.17857953 -1.78372035 11.17857953 -3 9 C-2.44140625 6.8359375 -2.44140625 6.8359375 -1.5625 4.375 C-1.27503906 3.55773437 -0.98757813 2.74046875 -0.69140625 1.8984375 C-0.46324219 1.27195312 -0.23507812 0.64546875 0 0 Z " fill="#133D70" transform="translate(479,308)"/>
<path d="M0 0 C0.33 0 0.66 0 1 0 C1.19620767 2.06168985 1.38160753 4.12440998 1.5625 6.1875 C1.66691406 7.33605469 1.77132812 8.48460937 1.87890625 9.66796875 C1.98859985 12.68631199 1.74002389 15.08923936 1 18 C0.67 18 0.34 18 0 18 C-0.19620767 15.93831015 -0.38160753 13.87559002 -0.5625 11.8125 C-0.66691406 10.66394531 -0.77132812 9.51539063 -0.87890625 8.33203125 C-0.98859985 5.31368801 -0.74002389 2.91076064 0 0 Z " fill="#505354" transform="translate(182,352)"/>
<path d="M0 0 C3.03639077 5.38869349 2.46246713 11.15013147 1 17 C-1.55694972 13.16457543 -1.04045639 11.34097467 -0.625 6.8125 C-0.51414062 5.54019531 -0.40328125 4.26789063 -0.2890625 2.95703125 C-0.19367188 1.98121094 -0.09828125 1.00539063 0 0 Z " fill="#3C3D3E" transform="translate(376,302)"/>
<path d="M0 0 C1 3 1 3 -0.21484375 5.91796875 C-0.78332031 6.99691406 -1.35179687 8.07585937 -1.9375 9.1875 C-2.50339844 10.27417969 -3.06929688 11.36085938 -3.65234375 12.48046875 C-4.09707031 13.31191406 -4.54179687 14.14335937 -5 15 C-6 12 -6 12 -4.78515625 9.08203125 C-4.21667969 8.00308594 -3.64820313 6.92414063 -3.0625 5.8125 C-2.49660156 4.72582031 -1.93070312 3.63914062 -1.34765625 2.51953125 C-0.90292969 1.68808594 -0.45820313 0.85664063 0 0 Z " fill="#1D1E1F" transform="translate(367,346)"/>
<path d="M0 0 C2.49310643 3.73965964 2.0603261 5.29070641 1.625 9.6875 C1.51414062 10.86699219 1.40328125 12.04648437 1.2890625 13.26171875 C1.19367188 14.16535156 1.09828125 15.06898438 1 16 C-1.49310643 12.26034036 -1.0603261 10.70929359 -0.625 6.3125 C-0.51414062 5.13300781 -0.40328125 3.95351563 -0.2890625 2.73828125 C-0.19367188 1.83464844 -0.09828125 0.93101562 0 0 Z " fill="#2E2F30" transform="translate(328,342)"/>
<path d="M0 0 C2.37706418 3.66539668 2.05094317 6.49056835 1.625 10.75 C1.51414062 11.92046875 1.40328125 13.0909375 1.2890625 14.296875 C1.19367188 15.18890625 1.09828125 16.0809375 1 17 C0.67 17 0.34 17 0 17 C-1.33257403 5.47835991 -1.33257403 5.47835991 0 0 Z " fill="#434446" transform="translate(374,171)"/>
<path d="M0 0 C2.27477677 3.53854164 1.99082706 5.70947373 1.125 9.75 C0.92132813 10.73484375 0.71765625 11.7196875 0.5078125 12.734375 C0.34023438 13.48203125 0.17265625 14.2296875 0 15 C-0.66 14.67 -1.32 14.34 -2 14 C-1.03644647 4.58997722 -1.03644647 4.58997722 0 0 Z " fill="#37393A" transform="translate(334,308)"/>
<path d="M0 0 C3.68646141 1.45855647 5.16143971 3.30229045 7.25 6.625 C8.03117188 7.85089844 8.03117188 7.85089844 8.828125 9.1015625 C9.21484375 9.72804687 9.6015625 10.35453125 10 11 C9.01 11 8.02 11 7 11 C5.17578125 9.1015625 5.17578125 9.1015625 3.3125 6.625 C2.68988281 5.81289062 2.06726563 5.00078125 1.42578125 4.1640625 C0 2 0 2 0 0 Z " fill="#242526" transform="translate(158,139)"/>
<path d="M0 0 C0.66 0.66 1.32 1.32 2 2 C1.6875 4.8125 1.6875 4.8125 1 8 C0.814375 8.94875 0.62875 9.8975 0.4375 10.875 C0.2209375 11.926875 0.2209375 11.926875 0 13 C-0.99 13 -1.98 13 -3 13 C-2.01 8.71 -1.02 4.42 0 0 Z " fill="#021627" transform="translate(452,332)"/>
<path d="M0 0 C1.051875 1.1446875 1.051875 1.1446875 2.125 2.3125 C4.96352604 4.96590478 7.46949051 6.44000743 11 8 C11 8.99 11 9.98 11 11 C6.56090219 9.60485497 4.01975019 7.52304189 1 4 C0.1875 1.6875 0.1875 1.6875 0 0 Z " fill="#0F0E0A" transform="translate(257,288)"/>
<path d="M0 0 C0.66 0.66 1.32 1.32 2 2 C1.6875 4.8125 1.6875 4.8125 1 8 C0.814375 8.94875 0.62875 9.8975 0.4375 10.875 C0.2209375 11.926875 0.2209375 11.926875 0 13 C-0.66 12.67 -1.32 12.34 -2 12 C-1 3.42857143 -1 3.42857143 0 0 Z " fill="#021525" transform="translate(113,340)"/>
<path d="M0 0 C0.33 0 0.66 0 1 0 C1.98329211 4.05607995 2.23600253 7.83062202 2 12 C1.34 12.66 0.68 13.32 0 14 C-0.19532961 12.2300132 -0.38098882 10.45895721 -0.5625 8.6875 C-0.66691406 7.70136719 -0.77132813 6.71523438 -0.87890625 5.69921875 C-1 3 -1 3 0 0 Z " fill="#021729" transform="translate(436,270)"/>
<path d="M0 0 C2.02907167 3.3146667 2.12742133 5.4315979 1.625 9.25 C1.51414063 10.14203125 1.40328125 11.0340625 1.2890625 11.953125 C1.19367188 12.62859375 1.09828125 13.3040625 1 14 C0.34 13.34 -0.32 12.68 -1 12 C-0.9765625 9.1796875 -0.9765625 9.1796875 -0.625 5.875 C-0.51414063 4.77929688 -0.40328125 3.68359375 -0.2890625 2.5546875 C-0.14597656 1.29011719 -0.14597656 1.29011719 0 0 Z " fill="#37393A" transform="translate(184,248)"/>
<path d="M0 0 C2.33061852 3.49592778 2.70295038 5.84130536 3 10 C2.01 11.485 2.01 11.485 1 13 C0.63779734 11.20994059 0.28547531 9.41787943 -0.0625 7.625 C-0.25972656 6.62726563 -0.45695313 5.62953125 -0.66015625 4.6015625 C-1 2 -1 2 0 0 Z " fill="#3A3B3D" transform="translate(206,248)"/>
<path d="M0 0 C0.66 0 1.32 0 2 0 C1.25 7.75 1.25 7.75 -1 10 C-2.46726798 6.18510326 -1.43336419 3.70988378 0 0 Z " fill="#011323" transform="translate(428,330)"/>
<path d="M0 0 C0.33 0 0.66 0 1 0 C1.22331199 1.58129029 1.42804644 3.16521089 1.625 4.75 C1.74101562 5.63171875 1.85703125 6.5134375 1.9765625 7.421875 C2.00207817 10.22859878 1.44843844 11.63384866 0 14 C-0.19532961 12.2300132 -0.38098882 10.45895721 -0.5625 8.6875 C-0.66691406 7.70136719 -0.77132812 6.71523437 -0.87890625 5.69921875 C-1 3 -1 3 0 0 Z " fill="#383A3B" transform="translate(186,192)"/>
<path d="M0 0 C0.99 0.33 1.98 0.66 3 1 C2.04956626 2.33897583 1.08940853 3.67105427 0.125 5 C-0.40867187 5.7425 -0.94234375 6.485 -1.4921875 7.25 C-2.23855469 8.11625 -2.23855469 8.11625 -3 9 C-3.66 9 -4.32 9 -5 9 C-3.7508258 5.54074837 -2.32472205 2.85306797 0 0 Z " fill="#010E19" transform="translate(68,387)"/>
<path d="M0 0 C0 0.66 0 1.32 0 2 C-1.96875 3.5078125 -1.96875 3.5078125 -4.5 5.125 C-5.3353125 5.66382813 -6.170625 6.20265625 -7.03125 6.7578125 C-7.6809375 7.16773438 -8.330625 7.57765625 -9 8 C-9.33 7.34 -9.66 6.68 -10 6 C-8.71283353 4.99421411 -7.42011342 3.99553202 -6.125 3 C-5.40570313 2.443125 -4.68640625 1.88625 -3.9453125 1.3125 C-2 0 -2 0 0 0 Z " fill="#02070C" transform="translate(157,251)"/>
<path d="M0 0 C0.66 0.33 1.32 0.66 2 1 C-0.64 3.64 -3.28 6.28 -6 9 C-6 5.06368636 -4.57142871 3.87394974 -2 1 C-1.34 0.67 -0.68 0.34 0 0 Z " fill="#123D6E" transform="translate(143,147)"/>
<path d="M0 0 C0.66 0.66 1.32 1.32 2 2 C1.96712417 4.72869407 1.43602229 7.2966618 1 10 C0.34 9.34 -0.32 8.68 -1 8 C-0.96712417 5.27130593 -0.43602229 2.7033382 0 0 Z " fill="#021729" transform="translate(90,301)"/>
<path d="M0 0 C3.36720387 1.39332574 4.9859524 2.9789286 7 6 C4 6 4 6 1.8125 4.125 C0 2 0 2 0 0 Z " fill="#021424" transform="translate(415,175)"/>
</svg>
